<svg xmlns="http://www.w3.org/2000/svg" width="567" height="447" viewBox="0 0 567 447">
  <g fill="none" fill-rule="evenodd">
    <g transform="translate(196.83 393.75)">
      <g fill="#C7C7C7" transform="translate(1.9)">
        <path d="M85.4849498,0 L85.4849498,48.2272103 L0.0189086983,48.2272103 C0.0189086983,48.2272103 11.0008112,43.8436087 17.7224735,36.1547317 C24.4441357,28.4658548 24.4441357,0 24.4441357,0 L85.4849498,0 Z"/>
        <path d="M167.189477,0 L167.189477,48.2272103 L79.7859532,48.2272103 C79.7859532,48.2272103 91.0168113,43.8436087 97.8908511,36.1547317 C104.764891,28.4658548 104.764891,0 104.764891,0 L167.189477,0 Z" transform="matrix(-1 0 0 1 246.975 0)"/>
      </g>
      <rect width="169.139" height="5.695" x=".871" y="47.458" fill="#A8A8A8" rx="2.847"/>
      <rect width="117.869" height="7.593" x="26.506" fill="#AAA"/>
    </g>
    <path fill="#43403D" d="M19.8967106,0.799969461 L548.002955,0.799969461 C558.502532,0.799969461 567,9.30459653 567,19.7955857 L567,342.494885 L0.899665552,342.494885 L0.899665552,19.7955857 C0.899665552,9.31030736 9.40493235,0.799969461 19.8967106,0.799969461 Z M27.4949833,25.5762712 L27.4949833,316.016949 L540.404682,316.016949 L540.404682,25.5762712 L27.4949833,25.5762712 Z"/>
    <path fill="#DEDEDE" d="M0.899665552,340.59658 L0.899665552,372.856262 C0.899665552,384.39507 10.2530819,393.749122 21.8034776,393.749122 L546.096188,393.749122 C557.641045,393.749122 567,384.399367 567,372.856262 L567,340.59658 L0.899665552,340.59658 Z"/>
    <path fill="#9E9E9E" d="M284.215101,18.5388609 C286.313414,18.5388609 288.014432,16.8390607 288.014432,14.7422507 C288.014432,12.6454407 286.313414,10.9456406 284.215101,10.9456406 C282.116789,10.9456406 280.41577,12.6454407 280.41577,14.7422507 C280.41577,16.8390607 282.116789,18.5388609 284.215101,18.5388609 Z"/>
  </g>
</svg>
